<?xml version="1.0" encoding="UTF-8"?>
<svg width="49.111mm" height="52.919mm" version="1.1" viewBox="0 0 49.111 52.919" xmlns="http://www.w3.org/2000/svg" xmlns:cc="http://creativecommons.org/ns#" xmlns:dc="http://purl.org/dc/elements/1.1/" xmlns:rdf="http://www.w3.org/1999/02/22-rdf-syntax-ns#">
 <metadata>
  <rdf:RDF>
   <cc:Work rdf:about="">
    <dc:format>image/svg+xml</dc:format>
    <dc:type rdf:resource="http://purl.org/dc/dcmitype/StillImage"/>
    <dc:title/>
   </cc:Work>
  </rdf:RDF>
 </metadata>
 <g transform="translate(-235.25 -92.613)">
  <g transform="translate(-44.318 -15.592)">
   <path d="m279.57 117.02c0.53453 0.0668 24.656-8.8199 24.656-8.8199l24.455 8.9535-3.8086 32.674-20.914 11.292-20.58-11.693z" fill="#46838e" stroke-width="0"/>
   <g transform="matrix(.55695 0 0 .54019 173.12 69.718)" fill="#fff" stroke-width=".26458">
    <path d="m229.15 102.98c-6.8805-1.2531-12.321 0.0585-14.489 3.814-1.6179 2.8025-1.1554 6.518 1.1218 10.49a0.70564 0.70564 0 1 0 1.224-0.70194c-2.051-3.5777-2.4503-6.7842-1.1237-9.0821 1.8013-3.1197 6.6537-4.2897 13.014-3.1313a0.70564 0.70564 0 0 0 0.25294-1.3883zm-9.7893 19.131c2.7821 3.0573 6.3966 5.9251 10.519 8.3047 9.9809 5.7626 20.607 7.3028 25.843 3.7322a0.70564 0.70564 0 1 0-0.79508-1.1658c-4.6868 3.1956-14.78 1.7325-24.342-3.7883-3.9989-2.3088-7.4991-5.0858-10.181-8.0328a0.70564 0.70564 0 1 0-1.0438 0.94986z"/>
    <path d="m254.05 121.25c4.5053-5.3224 6.0783-10.675 3.9145-14.423-1.592-2.7578-4.9578-4.2138-9.4311-4.272a0.70564 0.70564 0 0 0-0.0183 1.411c4.023 0.0524 6.9228 1.3068 8.2275 3.5666 1.797 3.1128 0.39423 7.8864-3.7698 12.806a0.70564 0.70564 0 1 0 1.0771 0.91176zm-11.578-18.038c-4.0735 0.87286-8.4095 2.5794-12.574 4.9834-10.303 5.9486-17.025 14.72-16.091 21.081a0.70564 0.70564 0 1 0 1.3962-0.20505c-0.82894-5.6473 5.5422-13.962 15.401-19.654 4.0394-2.3323 8.2378-3.9846 12.163-4.8257a0.70564 0.70564 0 1 0-0.29554-1.3798z"/>
    <path d="m225.78 133.68c2.3558 6.5776 6.2095 10.628 10.543 10.628 3.1604 0 6.0844-2.1545 8.3645-5.9473a0.70564 0.70564 0 1 0-1.2094-0.72708c-2.0492 3.4086-4.5662 5.2631-7.1551 5.2631-3.5997 0-7.0369-3.6121-9.2141-9.6917a0.70564 0.70564 0 1 0-1.3285 0.47545zm21.516-1.2867c1.2197-3.8968 1.8746-8.3921 1.8746-13.077 0-11.689-4.0912-21.765-9.9184-24.353a0.70564 0.70564 0 0 0-0.57256 1.2896c5.1972 2.308 9.0797 11.871 9.0797 23.063 0 4.5448-0.63421 8.8979-1.8098 12.655a0.70564 0.70564 0 1 0 1.3467 0.42149zm13.288-0.6911c0-1.865-1.5118-3.3769-3.3769-3.3769s-3.3769 1.5118-3.3769 3.3769c0 1.865 1.5118 3.3769 3.3769 3.3769s3.3769-1.5118 3.3769-3.3769zm-1.411 0a1.9659 1.9659 0 1 1-3.9317 0 1.9659 1.9659 0 0 1 3.9317 0zm-43.785 3.3769c1.8653 0 3.3771-1.5118 3.3771-3.3769 0-1.865-1.5121-3.3769-3.3771-3.3769-1.8648 0-3.3769 1.5118-3.3769 3.3769 0 1.865 1.5121 3.3769 3.3769 3.3769zm0-1.411a1.9659 1.9659 0 1 1 0-3.9317 1.9659 1.9659 0 0 1 0 3.9317z"/>
    <path d="m236.33 98.413c1.865 0 3.3769-1.5118 3.3769-3.3769 0-1.865-1.5118-3.3769-3.3769-3.3769s-3.3769 1.5118-3.3769 3.3769c0 1.865 1.5118 3.3769 3.3769 3.3769zm0-1.411a1.9659 1.9659 0 1 1 0-3.9317 1.9659 1.9659 0 0 1 0 3.9317zm0.51567 24.707c-1.3189 0.28496-2.6183-0.55324-2.9038-1.8722a2.4437 2.4437 0 0 1 1.8722-2.9041c1.319-0.28496 2.6183 0.55324 2.9041 1.8722 0.28496 1.3189-0.55324 2.6186-1.8725 2.9041z"/>
   </g>
  </g>
 </g>
</svg>
